<?xml version="1.0" encoding="UTF-8"?>
<svg version="1.1" xmlns="http://www.w3.org/2000/svg" width="500" height="500">
<path d="M0 0 C165 0 330 0 500 0 C500 165 500 330 500 500 C335 500 170 500 0 500 C0 335 0 170 0 0 Z " fill="#000000" transform="translate(0,0)"/>
<path d="M0 0 C0.99756065 -0.00199087 1.99512131 -0.00398174 3.02291107 -0.00603294 C4.11597691 -0.00312028 5.20904274 -0.00020761 6.33523178 0.00279331 C7.49556931 0.00193729 8.65590683 0.00108128 9.8514061 0.00019932 C13.07909064 -0.00116935 16.30673524 0.00197261 19.53441507 0.0069751 C23.06588911 0.01133678 26.59736159 0.00988082 30.12883759 0.00915718 C36.98636956 0.00862515 43.84388846 0.01324606 50.70141707 0.01965851 C58.6322334 0.02685287 66.56304184 0.02765295 74.49386215 0.02844334 C95.43673532 0.03369566 116.37960557 0.04765675 137.32247543 0.06054783 C184.09997543 0.08117283 230.87747543 0.10179783 279.07247543 0.12304783 C279.07247543 126.84304783 279.07247543 253.56304783 279.07247543 384.12304783 C231.55247543 384.12304783 184.03247543 384.12304783 135.07247543 384.12304783 C135.07247543 373.56304783 135.07247543 363.00304783 135.07247543 352.12304783 C172.36247543 352.12304783 209.65247543 352.12304783 248.07247543 352.12304783 C248.07247543 341.56304783 248.07247543 331.00304783 248.07247543 320.12304783 C216.85260869 320.16016545 185.63286438 320.21597618 154.41309425 320.30096878 C150.72688252 320.31098618 147.04067034 320.32083032 143.35445786 320.33056736 C142.62060279 320.33250873 141.88674773 320.33445011 141.13065464 320.33645031 C129.24991249 320.36746704 117.36918965 320.38445004 105.48841464 320.39624205 C93.29662195 320.40865532 81.10493059 320.43616065 68.91320187 320.47766089 C61.39089684 320.50279136 53.86875986 320.51616545 46.34641225 320.5144774 C40.57716877 320.51444411 34.80814882 320.53541391 29.0389843 320.56421566 C26.67309275 320.57273976 24.30716539 320.57444766 21.94126511 320.56885052 C18.71159052 320.5622272 15.48293987 320.58009262 12.25336838 320.6040659 C11.31658499 320.59630548 10.3798016 320.58854506 9.41463083 320.58054948 C3.4552573 320.65888703 -0.02770092 321.68148585 -4.92752457 325.12304783 C-8.56438515 328.99454458 -8.43257187 333.31891294 -8.27518082 338.39648533 C-7.73422064 342.63907185 -6.59566092 344.75277033 -3.92752457 348.12304783 C-0.12712377 350.54883557 2.57818669 351.22419008 7.07247543 352.12304783 C7.07247543 362.68304783 7.07247543 373.24304783 7.07247543 384.12304783 C-6.38487308 384.12304783 -17.5035664 380.0035075 -27.43533707 370.79882908 C-38.26465791 359.41553308 -41.23343371 347.889827 -41.20167923 332.55561924 C-41.20691591 331.30022207 -41.21215259 330.0448249 -41.21754795 328.75138539 C-41.23166697 325.28285172 -41.23339241 321.81440792 -41.23295105 318.34584963 C-41.23460465 314.59858498 -41.24768124 310.85135677 -41.25914383 307.10411167 C-41.28195044 298.91802368 -41.28990967 290.73196168 -41.29497027 282.54584622 C-41.29823217 277.4299511 -41.30475759 272.31406346 -41.31197166 267.19817257 C-41.33153147 253.02042255 -41.34793946 238.84267947 -41.3508482 224.66491508 C-41.35103577 223.75844209 -41.35122334 222.8519691 -41.35141659 221.91802723 C-41.35178283 220.08056907 -41.35214653 218.2431109 -41.3525077 216.40565274 C-41.35269051 215.49359673 -41.35287333 214.58154072 -41.35306168 213.64184666 C-41.35324223 212.72867135 -41.35342277 211.81549605 -41.35360879 210.87464877 C-41.35714954 196.08199528 -41.38416846 181.28948744 -41.42155956 166.49688444 C-41.45968318 151.29224376 -41.47900597 136.08767529 -41.47930771 120.88298577 C-41.47989134 112.35303786 -41.48832277 103.82326375 -41.51730537 95.29336071 C-41.5418735 88.02955968 -41.54906561 80.76599586 -41.53405785 73.50216446 C-41.52691118 69.8001626 -41.52764833 66.09862864 -41.55046844 62.39667988 C-41.57503549 58.37257801 -41.56036041 54.34953077 -41.5422554 50.32539463 C-41.55545537 49.17030645 -41.56865534 48.01521827 -41.5822553 46.82512742 C-41.45072328 33.96615188 -36.63218746 22.59490135 -27.92752457 13.12304783 C-19.94438786 6.21053587 -10.84790497 -0.00478303 0 0 Z " fill="#010101" transform="translate(130.9275245666504,41.876952171325684)"/>
<path d="M0 0 C0.99756065 -0.00199087 1.99512131 -0.00398174 3.02291107 -0.00603294 C4.11597691 -0.00312028 5.20904274 -0.00020761 6.33523178 0.00279331 C7.49556931 0.00193729 8.65590683 0.00108128 9.8514061 0.00019932 C13.07909064 -0.00116935 16.30673524 0.00197261 19.53441507 0.0069751 C23.06588911 0.01133678 26.59736159 0.00988082 30.12883759 0.00915718 C36.98636956 0.00862515 43.84388846 0.01324606 50.70141707 0.01965851 C58.6322334 0.02685287 66.56304184 0.02765295 74.49386215 0.02844334 C95.43673532 0.03369566 116.37960557 0.04765675 137.32247543 0.06054783 C184.09997543 0.08117283 230.87747543 0.10179783 279.07247543 0.12304783 C279.07247543 126.84304783 279.07247543 253.56304783 279.07247543 384.12304783 C231.55247543 384.12304783 184.03247543 384.12304783 135.07247543 384.12304783 C135.07247543 373.56304783 135.07247543 363.00304783 135.07247543 352.12304783 C172.36247543 352.12304783 209.65247543 352.12304783 248.07247543 352.12304783 C248.07247543 341.56304783 248.07247543 331.00304783 248.07247543 320.12304783 C216.85260869 320.16016545 185.63286438 320.21597618 154.41309425 320.30096878 C150.72688252 320.31098618 147.04067034 320.32083032 143.35445786 320.33056736 C142.62060279 320.33250873 141.88674773 320.33445011 141.13065464 320.33645031 C129.24991249 320.36746704 117.36918965 320.38445004 105.48841464 320.39624205 C93.29662195 320.40865532 81.10493059 320.43616065 68.91320187 320.47766089 C61.39089684 320.50279136 53.86875986 320.51616545 46.34641225 320.5144774 C40.57716877 320.51444411 34.80814882 320.53541391 29.0389843 320.56421566 C26.67309275 320.57273976 24.30716539 320.57444766 21.94126511 320.56885052 C18.71159052 320.5622272 15.48293987 320.58009262 12.25336838 320.6040659 C11.31658499 320.59630548 10.3798016 320.58854506 9.41463083 320.58054948 C3.4552573 320.65888703 -0.02770092 321.68148585 -4.92752457 325.12304783 C-8.56438515 328.99454458 -8.43257187 333.31891294 -8.27518082 338.39648533 C-7.73422064 342.63907185 -6.59566092 344.75277033 -3.92752457 348.12304783 C-0.12712377 350.54883557 2.57818669 351.22419008 7.07247543 352.12304783 C7.07247543 362.68304783 7.07247543 373.24304783 7.07247543 384.12304783 C-6.38487308 384.12304783 -17.5035664 380.0035075 -27.43533707 370.79882908 C-38.26465791 359.41553308 -41.23343371 347.889827 -41.20167923 332.55561924 C-41.20691591 331.30022207 -41.21215259 330.0448249 -41.21754795 328.75138539 C-41.23166697 325.28285172 -41.23339241 321.81440792 -41.23295105 318.34584963 C-41.23460465 314.59858498 -41.24768124 310.85135677 -41.25914383 307.10411167 C-41.28195044 298.91802368 -41.28990967 290.73196168 -41.29497027 282.54584622 C-41.29823217 277.4299511 -41.30475759 272.31406346 -41.31197166 267.19817257 C-41.33153147 253.02042255 -41.34793946 238.84267947 -41.3508482 224.66491508 C-41.35103577 223.75844209 -41.35122334 222.8519691 -41.35141659 221.91802723 C-41.35178283 220.08056907 -41.35214653 218.2431109 -41.3525077 216.40565274 C-41.35269051 215.49359673 -41.35287333 214.58154072 -41.35306168 213.64184666 C-41.35324223 212.72867135 -41.35342277 211.81549605 -41.35360879 210.87464877 C-41.35714954 196.08199528 -41.38416846 181.28948744 -41.42155956 166.49688444 C-41.45968318 151.29224376 -41.47900597 136.08767529 -41.47930771 120.88298577 C-41.47989134 112.35303786 -41.48832277 103.82326375 -41.51730537 95.29336071 C-41.5418735 88.02955968 -41.54906561 80.76599586 -41.53405785 73.50216446 C-41.52691118 69.8001626 -41.52764833 66.09862864 -41.55046844 62.39667988 C-41.57503549 58.37257801 -41.56036041 54.34953077 -41.5422554 50.32539463 C-41.55545537 49.17030645 -41.56865534 48.01521827 -41.5822553 46.82512742 C-41.45072328 33.96615188 -36.63218746 22.59490135 -27.92752457 13.12304783 C-19.94438786 6.21053587 -10.84790497 -0.00478303 0 0 Z M-6.24002457 37.62304783 C-6.97672379 38.50476658 -6.97672379 38.50476658 -7.72830582 39.40429783 C-9.77025716 42.33087305 -10.05232433 44.89311184 -10.0505724 48.34968185 C-10.05256344 49.21605371 -10.05455449 50.08242556 -10.05660588 50.97505111 C-10.05369303 51.92737681 -10.05078019 52.87970251 -10.04777908 53.86088657 C-10.04863351 54.87208728 -10.04948793 55.88328799 -10.05036825 56.92513114 C-10.05202147 60.3292559 -10.04650422 63.73333188 -10.04104996 67.13745213 C-10.04076803 69.57136121 -10.04092594 72.00527038 -10.04149246 74.43917942 C-10.04172052 79.68733477 -10.03887556 84.93547899 -10.03325462 90.18363094 C-10.02513295 97.77160886 -10.02252372 105.35958076 -10.02126663 112.94756255 C-10.01907717 125.25809556 -10.01241992 137.56862194 -10.00296402 149.87915134 C-9.99378719 161.83878642 -9.98670768 173.79841971 -9.98245621 185.75805759 C-9.98219348 186.49505733 -9.98193076 187.23205707 -9.98166008 187.99139013 C-9.98035505 191.68864382 -9.97909134 195.38589751 -9.97784817 199.08315122 C-9.96747884 229.7631215 -9.94978912 260.44308374 -9.92752457 291.12304783 C-8.659815 290.79879133 -7.39210543 290.47453484 -6.08598042 290.14045238 C-0.81706878 288.97666153 4.2287067 288.83353449 9.60776901 288.84457493 C10.63226337 288.83878253 11.65675774 288.83299012 12.71229738 288.82702219 C16.1254393 288.81009493 19.53844541 288.80715194 22.95162582 288.80420017 C25.40612746 288.79489699 27.86062594 288.78472774 30.3151207 288.77375889 C35.58935876 288.75213083 40.86356181 288.73649876 46.13783073 288.72639179 C53.76340557 288.71176859 61.3889135 288.6862217 69.01444893 288.65806051 C81.38818414 288.61265847 93.76192902 288.57601651 106.13570786 288.54492283 C118.15135011 288.51471024 130.16696875 288.48034758 142.18258286 288.44043064 C142.92398024 288.43796909 143.66537763 288.43550754 144.42924161 288.4329714 C148.14883987 288.42059628 151.86843785 288.40813984 155.5880357 288.395643 C186.41615021 288.29217391 217.24429076 288.20308481 248.07247543 288.12304783 C249.23067142 260.92789989 249.13098679 233.75916881 248.97194028 206.54493117 C248.93702406 200.35513449 248.90881928 194.16530686 248.87983322 187.97548008 C248.82422363 176.31053271 248.76277727 164.64562408 248.69911188 152.9807182 C248.6267939 139.67672115 248.56116855 126.37269545 248.49604142 113.06866157 C248.3621787 85.75341732 248.22011915 58.43822083 248.07247543 31.12304783 C216.96306652 31.05461493 185.8536775 31.00152133 154.74421119 30.96985184 C151.07173144 30.96609971 147.39925184 30.96221674 143.72677231 30.95825291 C142.99564555 30.95746598 142.2645188 30.95667904 141.51123668 30.95586827 C129.67182367 30.94281317 117.83245434 30.91915875 105.99306725 30.89158944 C93.8454077 30.86353813 81.69777103 30.84687215 69.55008042 30.84078234 C62.05386352 30.83666533 54.55777011 30.82366052 47.06159122 30.79929843 C41.31420011 30.78157089 35.56688818 30.77968152 29.81947517 30.78372478 C27.46120378 30.78289829 25.10292779 30.77691555 22.74468422 30.7654314 C19.52799987 30.75053295 16.31184631 30.75408489 13.09514999 30.76228428 C12.15934471 30.75354575 11.22353943 30.74480723 10.25937641 30.7358039 C3.39035062 30.78321634 -1.72747425 32.0766248 -6.24002457 37.62304783 Z " fill="#FDFDFD" transform="translate(130.9275245666504,41.876952171325684)"/>
<path d="M0 0 C21.12 0 42.24 0 64 0 C64 26.4 64 52.8 64 80 C59.49240351 76.13634587 55.28353327 72.38382984 51.20703125 68.12890625 C50.15488654 67.04955509 49.10213513 65.97079506 48.04882812 64.89257812 C46.41681108 63.21703403 44.78906998 61.5380384 43.17114258 59.84887695 C41.59021042 58.2016484 39.9940692 56.5705457 38.39453125 54.94140625 C37.91216507 54.43009659 37.42979889 53.91878693 36.93281555 53.39198303 C35.42479977 51.81407199 35.42479977 51.81407199 33 50 C28.83940138 50.11286286 26.8361262 52.86098411 24.0625 55.75 C23.22847656 56.61109375 22.39445312 57.4721875 21.53515625 58.359375 C20.28025391 59.66648437 20.28025391 59.66648437 19 61 C17.33604998 62.66937889 15.66916729 64.33583771 14 66 C12.90047937 67.11012044 11.80155632 68.22083297 10.703125 69.33203125 C9.55211448 70.4922184 8.40107239 71.65237423 7.25 72.8125 C6.66089844 73.40998047 6.07179687 74.00746094 5.46484375 74.62304688 C3.99536682 76.10096908 2.49994982 77.55301451 1 79 C0.67 79 0.34 79 0 79 C0 52.93 0 26.86 0 0 Z " fill="#FDFDFD" transform="translate(170,378)"/>
<path d="M0 0 C10.56 0 21.12 0 32 0 C32 10.56 32 21.12 32 32 C21.44 32 10.88 32 0 32 C0 21.44 0 10.88 0 0 Z " fill="#FDFDFD" transform="translate(170,266)"/>
<path d="M0 0 C10.56 0 21.12 0 32 0 C32 10.56 32 21.12 32 32 C21.44 32 10.88 32 0 32 C0 21.44 0 10.88 0 0 Z " fill="#F9F9F9" transform="translate(170,186)"/>
<path d="M0 0 C10.56 0 21.12 0 32 0 C32 10.56 32 21.12 32 32 C21.44 32 10.88 32 0 32 C0 21.44 0 10.88 0 0 Z " fill="#FBFBFB" transform="translate(170,105)"/>
<path d="M0 0 C2.41017541 1.87517253 4.49422559 4.02902887 6.61328125 6.22265625 C7.22769577 6.84273056 7.84211029 7.46280487 8.47514343 8.10166931 C10.43053458 10.07940583 12.37154064 12.07060817 14.3125 14.0625 C15.63774625 15.40781348 16.96390809 16.7522257 18.29101562 18.09570312 C21.53805073 21.38678128 24.77225596 24.69000432 28 28 C25 28 25 28 22.1809082 25.52148438 C21.0464748 24.38657524 19.92028209 23.24339159 18.80078125 22.09375 C18.20573288 21.49445679 17.61068451 20.89516357 16.99760437 20.27770996 C15.09542948 18.35871908 13.20393795 16.42956888 11.3125 14.5 C10.02608 13.19853699 8.7389789 11.89774682 7.45117188 10.59765625 C4.29281998 7.40619631 1.14401203 4.20558502 -2 1 C-6.66874537 4.89976721 -11.09127809 8.95214644 -15.37109375 13.2734375 C-15.93828629 13.84204498 -16.50547882 14.41065247 -17.08985901 14.99649048 C-18.87479913 16.78696236 -20.65620256 18.58090484 -22.4375 20.375 C-23.65796939 21.60049323 -24.87867053 22.82575572 -26.09960938 24.05078125 C-29.06908756 27.03119774 -32.03540257 30.01472894 -35 33 C-35.33 32.34 -35.66 31.68 -36 31 C-35.06093516 28.68684028 -34.07221851 26.52782099 -32.9375 24.3125 C-32.61241455 23.67691162 -32.2873291 23.04132324 -31.95239258 22.38647461 C-26.96960496 12.90176942 -12.15543045 -4.45223474 0 0 Z " fill="#EFEFEF" transform="translate(127,44)"/>
<path d="M0 0 C0.33 0 0.66 0 1 0 C1 26.4 1 52.8 1 80 C-6.875 73.25 -6.875 73.25 -9.4375 70.125 C-9.93121094 69.52945313 -10.42492187 68.93390625 -10.93359375 68.3203125 C-11.46146484 67.66675781 -11.46146484 67.66675781 -12 67 C-11.45730469 66.52949219 -10.91460937 66.05898438 -10.35546875 65.57421875 C-9.28232422 64.64029297 -9.28232422 64.64029297 -8.1875 63.6875 C-7.47980469 63.07261719 -6.77210938 62.45773437 -6.04296875 61.82421875 C-5.36878906 61.22222656 -4.69460937 60.62023437 -4 60 C-3.47341797 59.62681641 -2.94683594 59.25363281 -2.40429688 58.86914062 C-0.21032853 55.94893519 -0.51913419 52.78567255 -0.48828125 49.26953125 C-0.47033005 48.51911057 -0.45237885 47.76868988 -0.43388367 46.99552917 C-0.37974813 44.6012431 -0.34587584 42.20715669 -0.3125 39.8125 C-0.27932964 38.18812323 -0.24484024 36.56377283 -0.20898438 34.93945312 C-0.1240203 30.95977944 -0.05722535 26.9801653 0 23 C-0.66 23 -1.32 23 -2 23 C-1.67 22.34 -1.34 21.68 -1 21 C-0.84824451 19.40737934 -0.75099675 17.80935144 -0.68359375 16.2109375 C-0.64169922 15.26992188 -0.59980469 14.32890625 -0.55664062 13.359375 C-0.51732422 12.37453125 -0.47800781 11.3896875 -0.4375 10.375 C-0.39431641 9.38242187 -0.35113281 8.38984375 -0.30664062 7.3671875 C-0.20038931 4.91160162 -0.09835036 2.45591297 0 0 Z " fill="#EEEEEE" transform="translate(233,378)"/>
<path d="M0 0 C3.3 0 6.6 0 10 0 C7.85249849 3.66864841 5.73678223 6.36644699 2.46875 9.09375 C-2.60987954 13.45668095 -7.29155724 18.18204514 -12 22.9375 C-12.87011719 23.81212891 -13.74023438 24.68675781 -14.63671875 25.58789062 C-16.76013549 27.72297449 -18.88116378 29.86037205 -21 32 C-21.66 31.67 -22.32 31.34 -23 31 C-14.42 22.42 -5.84 13.84 3 5 C2.01 3.35 1.02 1.7 0 0 Z " fill="#E1E1E1" transform="translate(245,330)"/>
<path d="M0 0 C4.10260117 1.39986313 6.42983872 4.09771996 9.40161133 7.17407227 C10.01602585 7.79414658 10.63044037 8.41422089 11.26347351 9.05308533 C13.21886466 11.03082185 15.15987072 13.02202419 17.10083008 15.01391602 C18.42607633 16.3592295 19.75223817 17.70364171 21.0793457 19.04711914 C24.32638081 22.3381973 27.56058603 25.64142033 30.78833008 28.95141602 C27.78833008 28.95141602 27.78833008 28.95141602 24.96923828 26.47290039 C23.83480488 25.33799125 22.70861217 24.1948076 21.58911133 23.04516602 C20.99406296 22.4458728 20.39901459 21.84657959 19.78593445 21.22912598 C17.88375956 19.31013509 15.99226803 17.3809849 14.10083008 15.45141602 C12.81441007 14.149953 11.52730897 12.84916283 10.23950195 11.54907227 C7.08115006 8.35761233 3.9323421 5.15700104 0.78833008 1.95141602 C-0.20166992 2.28141602 -1.19166992 2.61141602 -2.21166992 2.95141602 C-2.87166992 2.29141602 -3.53166992 1.63141602 -4.21166992 0.95141602 C-2.21166992 -0.04858398 -2.21166992 -0.04858398 0 0 Z " fill="#DCDCDC" transform="translate(124.211669921875,43.048583984375)"/>
<path d="M0 0 C2.64 0 5.28 0 8 0 C7.02804687 0.88816406 6.05609375 1.77632813 5.0546875 2.69140625 C0.64397425 7.83723837 1.11022763 13.44135087 1.125 19.9375 C1.104375 21.09830078 1.08375 22.25910156 1.0625 23.45507812 C1.0156024 26.30410721 0.99554045 29.15066559 1 32 C0.67 32 0.34 32 0 32 C0 21.44 0 10.88 0 0 Z " fill="#E5E5E5" transform="translate(266,394)"/>
<path d="M0 0 C3.3 0 6.6 0 10 0 C8.02 2.97 8.02 2.97 6 6 C5.01 5.67 4.02 5.34 3 5 C2.67 4.01 2.34 3.02 2 2 C1.34 2 0.68 2 0 2 C0 1.34 0 0.68 0 0 Z " fill="#EAEAEA" transform="translate(162,330)"/>
<path d="M0 0 C3.3 0 6.6 0 10 0 C8.35 1.65 6.7 3.3 5 5 C3.35 3.35 1.7 1.7 0 0 Z " fill="#EDEDED" transform="translate(328,330)"/>
<path d="M0 0 C3.3 0 6.6 0 10 0 C8.35 1.65 6.7 3.3 5 5 C3.35 3.35 1.7 1.7 0 0 Z " fill="#ECECEC" transform="translate(245,330)"/>
<path d="M0 0 C0.33 0.66 0.66 1.32 1 2 C1.66 2 2.32 2 3 2 C1.72530598 4.54938804 0.50840774 4.74579613 -2 6 C-3.70921589 7.5412312 -3.70921589 7.5412312 -5 9 C-5.99 8.67 -6.98 8.34 -8 8 C-5.36 5.36 -2.72 2.72 0 0 Z " fill="#E5E5E5" transform="translate(333,417)"/>
<path d="M0 0 C2.31 0 4.62 0 7 0 C5.35 1.65 3.7 3.3 2 5 C1.34 4.67 0.68 4.34 0 4 C0 2.68 0 1.36 0 0 Z " fill="#F1F1F1" transform="translate(267,394)"/>
</svg>
